<?xml version="1.0" encoding="utf-8"?>
<!-- Generator: Adobe Illustrator 22.1.0, SVG Export Plug-In . SVG Version: 6.00 Build 0)  -->
<svg version="1.1" id="Layer_1" xmlns="http://www.w3.org/2000/svg" xmlns:xlink="http://www.w3.org/1999/xlink" x="0px" y="0px"
	 viewBox="0 0 841.9 211.3" style="enable-background:new 0 0 841.9 211.3;" xml:space="preserve">
<style type="text/css">
	.st0{fill:#2A99C7;}
	.st1{fill:#DB2939;}
	.st2{fill:#FED19F;}
</style>
<g id="Layer_1_1_">
</g>
<g id="Layer_2_1_">
	<g>
		<g>
			<path class="st0" d="M102.8,91.6c0,0.7,0,1.8,0,3.2l-0.7,0.8c-5.4,1.5-12.6,2.2-21.5,2.2c-1.1,0-2.5,0-4.4,0v-6.1
				c0.7,0.1,1.3,0.1,2.1,0.1c3.2,0,6-0.2,8.5-0.6c0-0.6,0.1-1,0.1-1.3c0-11.1-3.5-16.6-10.4-16.6c-0.1,0-0.1,0-0.3,0v-6.6
				c1.2-0.2,2.3-0.3,3.5-0.3c7.3,0,13,2.1,17.1,6.3C100.8,77.1,102.8,83.4,102.8,91.6L102.8,91.6z M76.1,116.8
				c2.8,1.7,6,2.5,9.7,2.5c3.9,0,8.6-1.4,14-4.1l1.5,1.8l-2.7,6.1c-6,3.8-12.5,5.8-19.5,5.8c-1.1,0-2-0.1-3-0.1V116.8z M76.1,97.8
				c-0.8,0-1.8,0.1-2.9,0.1C70,98,67.6,98,66,98c0.3,6,2.1,11,5.6,14.9c1.3,1.6,2.9,2.9,4.6,3.9v11.9c-7.8-0.5-14-3.1-18.5-7.7
				c-5.1-5.2-7.7-12.6-7.7-22.2c0-11.4,2.7-19.3,8.2-23.5c6.2-4.8,12.3-7.7,18-8.5v6.6c-7.1,0.1-10.6,5.7-10.6,16.5v1.4
				c2.1,0.3,5.6,0.5,10.6,0.5L76.1,97.8L76.1,97.8z"/>
			<path class="st0" d="M178.9,126.1l-0.6,0.6c-4-0.3-7.6-0.4-10.9-0.4c-3.1,0-7.2,0.1-12.5,0.4l-0.6-0.4c0.1-2,0.2-5.3,0.2-10.1
				c-1.5,1.3-3.6,3.2-6.3,5.7c-3.4,3.2-5.6,5.1-6.7,5.7c-0.1,0-0.2,0.1-0.3,0.1v-11.4c0.3,0.1,0.7,0.1,1.1,0.1
				c2.9,0,5.6-0.9,8.1-2.8c2.2-1.6,3.6-3.4,4-5.3c0.1-0.6,0.1-5.3,0.1-14.3V82.4c-2.9-3.5-5.8-5.8-8.5-6.8c-1.5-0.6-3.2-0.8-4.8-0.9
				v-8.1c0.5-0.1,0.9-0.1,1.4-0.1c4.3,0,8.3,0.9,11.9,2.7v-3.4c0-10.8-0.2-17.2-0.8-19.1c-0.3-1.1-1.1-1.8-2.5-2
				c-0.6-0.1-2.5-0.3-5.7-0.4l-0.6-0.7v-3.4l0.6-0.7c7.9-0.8,15.9-2.5,23.9-5.1l1.3,0.8c0,0.1-0.1,2.2-0.2,6.1
				c-0.4,8.8-0.6,22-0.6,39.7v20c0,11.5,0.2,17.8,0.8,19c0.4,0.7,0.8,1.1,1.3,1.3c0.9,0.3,3,0.6,6.2,0.8l0.6,0.6v3.4H178.9z
				 M141.2,127.6c-1.3,0.5-3.4,0.8-6,0.8c-7,0-12.7-2.7-17-7.9c-4.3-5.3-6.5-12.1-6.5-20.6c0-8.2,1.6-14.5,5-19.1
				c0.8-1.2,3.4-3.3,7.6-6.4c4.9-3.5,8.5-5.8,10.7-6.7c1.7-0.7,3.7-1.1,6.1-1.2v8.1c-0.3-0.1-0.7-0.1-1.1-0.1
				c-5.7,0-9.3,2.9-10.9,8.8c-0.9,3.2-1.3,6.8-1.3,10.8c0,8.5,2,14.8,6,18.9c1.9,2,4.4,3.1,7.4,3.2V127.6z"/>
			<path class="st0" d="M259.8,118.2c-0.4,0.3-1.2,1.2-2.7,2.6c-2.5,2.3-4.5,4.3-6.2,6.2c-2,0.7-4,1-6.1,1c-5.7,0-9.8-1.6-12.5-5
				c-1-1.4-1.8-3.1-2.2-5c-0.4-2.2-0.6-5.2-0.6-8.8l0.2-14.7V79.1H228l-3.3,0.1h-2.5l-0.6-0.6V77l0.5-0.9c0.7-0.5,1.9-1.3,3.4-2.2
				c1.8-1.1,3.2-2.1,4.2-2.9v-8.3c0-3.5-0.2-7.2-0.5-11.1c3-1,5.5-1.8,7.4-2.6s4.6-2,8.1-3.7l1.6,1.2c-0.5,5.1-0.8,9.7-1.1,13.7
				l-0.6,10.7h2c4.5,0,8.3-0.1,11.6-0.4l0.7,0.6l-0.8,7.2l-0.6,0.6h-12.8v20.8c0,6.7,0.1,10.6,0.3,11.8c0.2,1.8,0.9,3.2,2.2,4.2
				c1.3,1.1,2.9,1.6,5.1,1.6c1.7,0,3.7-0.5,6.1-1.4L259.8,118.2z"/>
			<path class="st0" d="M318.6,125.8l-0.6,0.6c-3.4-0.2-7.4-0.3-11.9-0.3c-3.4,0-6.8,0.1-10,0.3l-0.6-0.6l0.6-8.3l-8.6,6.6v-6.9
				c3.5-0.4,6.4-2.3,8.6-5.8V96.3c-3.5,0.7-6.3,1.5-8.6,2.3v-5.9c2.6-0.6,5.5-1.1,8.6-1.7c0-6.5-1.8-10.9-5.2-13.1
				c-1.1-0.6-2.2-1.2-3.4-1.5v-10c0.8-0.1,1.8-0.1,2.8-0.1c8.1,0,13.8,2.2,17.3,6.4c2.5,3.1,3.7,7.8,3.7,14.2c0,1.5-0.1,4-0.2,7.5
				c-0.2,5.7-0.3,9.5-0.3,11.5c0,6.2,0.1,10.1,0.3,11.8c0.2,1.8,0.7,2.8,1.5,3.3c0.8,0.4,2.6,0.7,5.5,0.8l0.6,0.7L318.6,125.8
				L318.6,125.8z M287.4,124.1l-3.4,2.5c-0.9,0.7-2.2,1.1-4,1.3c-0.7,0.1-1.5,0.1-2.5,0.1c-4.6,0-8-1.3-10.5-4.1
				c-2.5-2.7-3.7-6.5-3.7-11.4c0-6.4,2-10.9,6-13.6c3.4-2.2,9.3-4.3,18-6.2v5.9c-2.2,0.8-3.9,1.6-5.1,2.5c-2.3,1.7-3.5,4.3-3.5,7.7
				c0,5.6,2.5,8.4,7.3,8.4c0.5,0,0.9-0.1,1.3-0.1v7H287.4z M287.4,76.4c-1.3-0.3-2.6-0.5-4.1-0.5c-3.2,0-5.8,0.7-7.6,2l-2.3,5.8
				l-0.8,0.4l-3.2-0.8l-0.4-0.8l0.4-7.2c6.7-5.1,11.9-7.9,15.2-8.5c0.8-0.2,1.8-0.3,2.8-0.4V76.4z"/>
			<path class="st0" d="M390.4,130.4c0,9-3.4,16.1-10,21.5c-6,4.8-13.8,7.4-23.1,7.9v-6.3c5.6-0.1,10.2-1.5,13.6-4.3
				c3.6-2.9,5.4-6.8,5.4-11.7c0-4.5-1.5-7.3-4.7-8.4c-1.3-0.5-3.9-0.8-7.9-0.8l-6.5-0.1V116h0.3c1.3,0,3.4-0.1,6.6-0.2
				s5.5-0.2,7-0.2c9.3,0,15.1,2.1,17.3,6.2C389.7,124,390.4,126.9,390.4,130.4L390.4,130.4z M357.2,65.7c7.6,0.1,13.8,1.9,18.2,5.3
				c2.6,0.1,4.2,0.2,5,0.1c2-0.1,5.1-0.2,9.1-0.3l0.7,0.6l-0.6,6.4l-0.7,0.6h-9.1c0.6,2,0.8,4,0.8,6c0,9.8-4.8,16.4-14.2,20
				c-3.1,1.2-6.1,1.9-9.1,2.2V101c5.2-0.9,7.9-5.5,7.9-13.6c0-9-2.7-14.1-7.9-15.2L357.2,65.7L357.2,65.7z M357.2,159.8
				c-1.1,0.1-2.2,0.1-3.2,0.1c-8.5,0-15.2-1.6-20.2-4.8c-4.9-3.2-7.4-7.4-7.4-12.8c0-3.6,0.8-6.3,2.4-8.2c0.1-0.1,2.3-1.5,6.5-4
				c2-1.2,3.5-2,4.4-2.5c-5.7-1-8.5-3.7-8.5-8.2c0-2.4,0.8-4.8,2.5-7.3c0.1-0.1,1.3-1,3.3-2.5c1-0.7,2.7-1.9,5.3-3.7
				c-8.8-3.2-13.3-9.1-13.3-17.8c0-6.7,2.5-12.1,7.5-16.1c5-4.1,11.7-6.1,20.1-6.1c0.2,0,0.4,0,0.7,0v6.4c-0.8-0.2-1.7-0.3-2.6-0.3
				c-6.8,0-10.2,4.4-10.2,13.4c0,10.6,3.5,15.9,10.6,15.9c0.8,0,1.5-0.1,2.2-0.1v5.8c-1.2,0.1-2.3,0.2-3.5,0.2
				c-1.4,0-3.2-0.1-5.4-0.4c-2.6,1.4-3.9,3.2-3.9,5.5c0,2.1,1.5,3.3,4.5,3.6c1.7,0.1,4.4,0.3,8.3,0.3v12.1H352c-1.3,0-3.2,0-5.5,0.1
				c-5.6,3.5-8.4,7.5-8.4,12c0,4.1,1.7,7.4,5,9.8c3.4,2.4,7.8,3.6,13.4,3.6c0.2,0,0.4,0,0.7,0V159.8z"/>
			<path class="st0" d="M450.3,91.6c0,0.7,0,1.8,0,3.2l-0.7,0.8c-5.4,1.5-12.6,2.2-21.5,2.2c-1.1,0-2.6,0-4.4,0v-6.1
				c0.7,0.1,1.3,0.1,2.1,0.1c3.2,0,6-0.2,8.5-0.6c0-0.6,0-1,0-1.3c0-11.1-3.4-16.6-10.3-16.6c-0.1,0-0.2,0-0.3,0v-6.6
				c1.2-0.2,2.3-0.3,3.5-0.3c7.3,0,13,2.1,17,6.3C448.3,77.1,450.3,83.4,450.3,91.6L450.3,91.6z M423.7,116.8c2.8,1.7,6,2.5,9.7,2.5
				c3.9,0,8.6-1.4,14-4.1l1.5,1.8l-2.7,6.1c-6,3.8-12.5,5.8-19.5,5.8c-1.1,0-2-0.1-3-0.1V116.8z M423.7,97.8c-0.8,0-1.8,0.1-2.9,0.1
				c-3.2,0.1-5.7,0.1-7.3,0.1c0.2,6,2.1,11,5.6,14.9c1.3,1.6,2.9,2.9,4.6,3.9v11.9c-7.8-0.5-14-3.1-18.5-7.7
				c-5.1-5.2-7.7-12.6-7.7-22.2c0-11.4,2.7-19.3,8.2-23.5c6.2-4.8,12.2-7.7,18-8.5v6.6c-7.1,0.1-10.6,5.7-10.6,16.5v1.4
				c2.1,0.3,5.6,0.5,10.6,0.5L423.7,97.8L423.7,97.8z"/>
			<polygon class="st1" points="207.5,109.2 193.5,107.1 205.1,42 219.1,44.1 			"/>
			<path d="M217.5,53l-14-2.2l1.6-8.9c0,0,3.4-1.5,6.9-1.2c3.4,0.4,7,3.3,7,3.3L217.5,53z"/>
			<polygon class="st2" points="207.5,109.2 199.9,108.1 198.2,104.6 197,107.7 193.5,107.2 195.3,121.8 200.6,122.6 			"/>
			<polygon points="195.3,121.8 196.4,130.7 200.6,122.6 			"/>
		</g>
		<g>
			
				<image style="overflow:visible;opacity:0.3;enable-background:new    ;" width="1346" height="429" xlink:href="9339EB4066E4C656.png"  transform="matrix(0.2393 0 0 0.2393 477.1284 51.092)">
			</image>
			<g>
				<g>
					<path d="M493.8,124.5c0,0.3-0.1,0.7-0.3,0.9c-0.2,0.3-0.6,0.5-1.1,0.7s-1.2,0.3-2.1,0.4s-2,0.2-3.3,0.2s-2.4-0.1-3.3-0.2
						s-1.6-0.2-2.1-0.4c-0.5-0.2-0.9-0.4-1.1-0.7c-0.2-0.3-0.3-0.6-0.3-0.9v-63c0-0.3,0.1-0.7,0.3-0.9c0.2-0.3,0.6-0.5,1.1-0.7
						s1.2-0.3,2.1-0.4c0.9-0.1,1.9-0.2,3.3-0.2c1.3,0,2.4,0.1,3.3,0.2c0.9,0.1,1.5,0.2,2.1,0.4c0.5,0.2,0.9,0.4,1.1,0.7
						s0.3,0.6,0.3,0.9V124.5z"/>
					<path d="M549.2,124.6c0,0.3-0.1,0.6-0.3,0.9s-0.6,0.5-1,0.6c-0.5,0.2-1.1,0.3-2,0.4c-0.8,0.1-1.9,0.1-3.1,0.1
						c-1.3,0-2.3,0-3.2-0.1c-0.8-0.1-1.5-0.2-2-0.4c-0.5-0.2-0.8-0.4-1-0.6c-0.2-0.3-0.3-0.6-0.3-0.9V98.4c0-2.2-0.2-4-0.5-5.3
						s-0.8-2.4-1.4-3.3c-0.6-0.9-1.4-1.6-2.4-2.1s-2.1-0.7-3.4-0.7c-1.7,0-3.3,0.6-5,1.8c-1.7,1.2-3.4,3-5.3,5.3v30.6
						c0,0.3-0.1,0.6-0.3,0.9s-0.6,0.5-1.1,0.6c-0.5,0.2-1.2,0.3-2,0.4s-1.9,0.1-3.1,0.1c-1.3,0-2.3,0-3.1-0.1
						c-0.8-0.1-1.5-0.2-2-0.4c-0.5-0.2-0.9-0.4-1.1-0.6c-0.2-0.3-0.3-0.6-0.3-0.9v-46c0-0.3,0.1-0.6,0.3-0.9
						c0.2-0.3,0.5-0.5,0.9-0.6c0.4-0.2,1-0.3,1.7-0.4s1.6-0.1,2.7-0.1c1.1,0,2,0,2.7,0.1s1.3,0.2,1.7,0.4c0.4,0.2,0.7,0.4,0.9,0.6
						c0.2,0.3,0.3,0.6,0.3,0.9V84c2.5-2.8,5.1-4.8,7.8-6.2c2.6-1.4,5.4-2.1,8.2-2.1c3.1,0,5.8,0.5,7.9,1.5c2.1,1,3.9,2.4,5.2,4.2
						c1.3,1.8,2.3,3.8,2.9,6.2c0.6,2.4,0.9,5.2,0.9,8.6v28.4H549.2z"/>
					<path d="M592,111.6c0,2.6-0.5,4.9-1.5,6.9s-2.4,3.7-4.2,5s-3.9,2.3-6.3,3c-2.4,0.7-5.1,1-7.9,1c-1.7,0-3.4-0.1-4.9-0.4
						c-1.6-0.3-3-0.6-4.2-1s-2.3-0.8-3.1-1.2c-0.8-0.4-1.4-0.8-1.8-1.2c-0.4-0.4-0.7-0.9-0.9-1.7c-0.2-0.8-0.3-1.9-0.3-3.4
						c0-1,0-1.8,0.1-2.4s0.2-1.1,0.3-1.4c0.1-0.4,0.3-0.6,0.5-0.7s0.5-0.2,0.8-0.2c0.4,0,0.9,0.2,1.7,0.6c0.7,0.4,1.7,0.9,2.8,1.4
						s2.4,1,3.8,1.4c1.5,0.4,3.1,0.7,5,0.7c1.2,0,2.2-0.1,3.1-0.4c0.9-0.2,1.7-0.6,2.4-1s1.2-1,1.5-1.7s0.5-1.5,0.5-2.4
						c0-1-0.3-1.9-1-2.7c-0.6-0.7-1.5-1.4-2.5-1.9s-2.2-1.1-3.6-1.5c-1.3-0.5-2.7-1-4.1-1.6c-1.4-0.6-2.8-1.3-4.1-2
						c-1.3-0.8-2.5-1.7-3.6-2.8c-1-1.1-1.9-2.4-2.5-4c-0.6-1.5-1-3.4-1-5.6s0.4-4.2,1.3-6.1c0.9-1.8,2.1-3.4,3.7-4.7
						c1.6-1.3,3.6-2.3,5.9-3c2.3-0.7,4.9-1.1,7.8-1.1c1.4,0,2.8,0.1,4.2,0.3c1.4,0.2,2.6,0.5,3.7,0.8c1.1,0.3,2,0.6,2.8,1
						s1.3,0.7,1.6,0.9c0.3,0.3,0.6,0.5,0.7,0.8c0.1,0.3,0.2,0.6,0.3,0.9c0.1,0.4,0.1,0.8,0.2,1.3c0.1,0.5,0.1,1.2,0.1,2
						c0,0.9,0,1.7-0.1,2.3c-0.1,0.6-0.1,1-0.3,1.4c-0.1,0.3-0.3,0.6-0.5,0.7s-0.4,0.2-0.7,0.2s-0.8-0.2-1.4-0.5
						c-0.7-0.4-1.5-0.7-2.5-1.2c-1-0.4-2.1-0.8-3.4-1.2c-1.3-0.4-2.8-0.5-4.4-0.5c-1.2,0-2.2,0.1-3,0.4c-0.9,0.2-1.6,0.6-2.1,1
						c-0.6,0.4-1,1-1.2,1.6c-0.3,0.6-0.4,1.2-0.4,1.9c0,1.1,0.3,2,1,2.7s1.5,1.4,2.6,1.9c1.1,0.6,2.3,1.1,3.6,1.5
						c1.4,0.5,2.7,1,4.1,1.6c1.4,0.6,2.8,1.2,4.1,2c1.4,0.8,2.6,1.7,3.6,2.8c1.1,1.1,1.9,2.4,2.6,3.9
						C591.7,107.7,592,109.5,592,111.6z"/>
					<path d="M613.4,63c0,2.6-0.5,4.4-1.6,5.4s-3,1.5-5.9,1.5s-4.9-0.5-5.9-1.4c-1-1-1.5-2.7-1.5-5.2c0-2.6,0.5-4.4,1.6-5.4
						c1-1,3-1.5,6-1.5c2.9,0,4.9,0.5,5.9,1.5C612.9,58.8,613.4,60.5,613.4,63z M612.5,124.6c0,0.3-0.1,0.6-0.3,0.9s-0.6,0.5-1.1,0.6
						c-0.5,0.2-1.2,0.3-2,0.4s-1.9,0.1-3.1,0.1c-1.3,0-2.3,0-3.1-0.1s-1.5-0.2-2-0.4c-0.5-0.2-0.9-0.4-1.1-0.6
						c-0.2-0.3-0.3-0.6-0.3-0.9V78.7c0-0.3,0.1-0.6,0.3-0.9s0.6-0.5,1.1-0.7s1.2-0.3,2-0.4s1.9-0.2,3.1-0.2c1.3,0,2.3,0.1,3.1,0.2
						s1.5,0.2,2,0.4c0.5,0.2,0.9,0.4,1.1,0.7c0.2,0.3,0.3,0.6,0.3,0.9V124.6z"/>
					<path d="M664.6,81.8c0,1.7-0.2,2.9-0.6,3.7c-0.4,0.8-0.8,1.2-1.4,1.2h-5.4c0.8,0.8,1.3,1.8,1.6,2.8s0.5,2.1,0.5,3.3
						c0,2.7-0.4,5.1-1.3,7.1c-0.9,2.1-2.2,3.8-3.8,5.3c-1.7,1.4-3.7,2.5-6,3.3c-2.4,0.7-5,1.1-7.9,1.1c-1.5,0-2.9-0.2-4.2-0.5
						c-1.3-0.4-2.4-0.8-3.1-1.3c-0.4,0.4-0.8,1-1.1,1.6s-0.5,1.3-0.5,2.1c0,1,0.4,1.8,1.3,2.5c0.9,0.6,2.1,1,3.7,1.1l11.2,0.4
						c2.6,0.1,4.9,0.5,7,1.1c2,0.6,3.8,1.5,5.2,2.7s2.5,2.5,3.2,4.2c0.7,1.6,1.1,3.5,1.1,5.5c0,2.3-0.5,4.4-1.5,6.4
						s-2.5,3.8-4.5,5.2c-2,1.5-4.5,2.6-7.5,3.5s-6.5,1.3-10.6,1.3c-3.9,0-7.3-0.3-10-0.9c-2.8-0.6-5-1.5-6.8-2.6s-3.1-2.4-3.9-3.9
						c-0.8-1.5-1.2-3.2-1.2-5c0-1.1,0.1-2.2,0.4-3.3c0.3-1,0.7-2,1.3-3c0.6-0.9,1.3-1.8,2.1-2.7c0.8-0.9,1.8-1.7,2.8-2.5
						c-1.5-0.8-2.6-1.9-3.4-3.2c-0.8-1.4-1.2-2.8-1.2-4.5c0-2,0.5-3.9,1.4-5.5c0.9-1.7,2.1-3.2,3.6-4.5c-1.2-1.2-2.2-2.6-2.9-4.3
						c-0.7-1.7-1.1-3.8-1.1-6.3c0-2.7,0.5-5.1,1.4-7.2s2.3-3.9,3.9-5.4c1.7-1.5,3.7-2.6,6-3.4s4.9-1.2,7.7-1.2
						c1.4,0,2.8,0.1,4.2,0.3c1.3,0.2,2.6,0.4,3.7,0.7h14.6c0.6,0,1.1,0.4,1.4,1.1C664.4,78.7,664.6,80,664.6,81.8z M650.9,129.4
						c0-1.5-0.6-2.7-1.9-3.6c-1.2-0.8-2.9-1.3-5.1-1.3l-9.2-0.3c-0.9,0.7-1.6,1.3-2.1,1.9s-1,1.2-1.3,1.7s-0.5,1.1-0.6,1.6
						s-0.2,1-0.2,1.6c0,1.7,0.9,3,2.6,3.9c1.7,0.9,4.2,1.3,7.4,1.3c2,0,3.6-0.2,5-0.6c1.3-0.4,2.4-0.9,3.3-1.6
						c0.8-0.7,1.4-1.4,1.8-2.2C650.8,131.2,650.9,130.3,650.9,129.4z M647.9,92.7c0-2.5-0.7-4.4-2.1-5.8c-1.4-1.4-3.3-2.1-5.8-2.1
						c-1.3,0-2.4,0.2-3.4,0.6s-1.8,1-2.4,1.8c-0.6,0.7-1.1,1.6-1.4,2.6c-0.3,1-0.5,2-0.5,3.1c0,2.3,0.7,4.2,2.1,5.5
						c1.4,1.4,3.3,2,5.7,2c1.3,0,2.4-0.2,3.4-0.6s1.8-1,2.4-1.7c0.6-0.7,1.1-1.6,1.4-2.5C647.7,94.7,647.9,93.7,647.9,92.7z"/>
					<path d="M714.8,124.6c0,0.3-0.1,0.6-0.3,0.9s-0.6,0.5-1,0.6c-0.5,0.2-1.1,0.3-2,0.4c-0.8,0.1-1.9,0.1-3.1,0.1
						c-1.3,0-2.3,0-3.2-0.1c-0.8-0.1-1.5-0.2-2-0.4c-0.5-0.2-0.8-0.4-1-0.6c-0.2-0.3-0.3-0.6-0.3-0.9V98.4c0-2.2-0.2-4-0.5-5.3
						s-0.8-2.4-1.4-3.3c-0.6-0.9-1.4-1.6-2.4-2.1s-2.1-0.7-3.4-0.7c-1.7,0-3.3,0.6-5,1.8c-1.7,1.2-3.4,3-5.3,5.3v30.6
						c0,0.3-0.1,0.6-0.3,0.9s-0.6,0.5-1.1,0.6c-0.5,0.2-1.2,0.3-2,0.4s-1.9,0.1-3.1,0.1c-1.3,0-2.3,0-3.1-0.1s-1.5-0.2-2-0.4
						c-0.5-0.2-0.9-0.4-1.1-0.6c-0.2-0.3-0.3-0.6-0.3-0.9V56.8c0-0.3,0.1-0.7,0.3-0.9c0.2-0.3,0.6-0.5,1.1-0.7s1.2-0.3,2-0.4
						c0.8-0.1,1.9-0.2,3.1-0.2c1.3,0,2.3,0.1,3.1,0.2c0.8,0.1,1.5,0.2,2,0.4s0.9,0.4,1.1,0.7c0.2,0.3,0.3,0.6,0.3,0.9v25.4
						c2.2-2.2,4.5-3.8,6.8-4.9s4.7-1.6,7.2-1.6c3.1,0,5.8,0.5,7.9,1.5c2.1,1,3.9,2.4,5.2,4.2c1.3,1.8,2.3,3.9,2.9,6.3
						c0.6,2.4,0.9,5.3,0.9,8.7L714.8,124.6L714.8,124.6z"/>
					<path d="M751.5,120.1c0,1.5-0.1,2.7-0.3,3.5s-0.4,1.4-0.7,1.7c-0.3,0.3-0.8,0.6-1.4,0.9c-0.6,0.3-1.3,0.5-2.1,0.7
						s-1.7,0.3-2.6,0.4c-0.9,0.1-1.9,0.2-2.9,0.2c-2.6,0-4.8-0.3-6.7-1s-3.5-1.7-4.7-3c-1.2-1.4-2.2-3.1-2.7-5.1
						c-0.6-2.1-0.9-4.5-0.9-7.3V87.4H721c-0.7,0-1.2-0.4-1.5-1.2c-0.3-0.8-0.5-2.2-0.5-4.1c0-1,0-1.8,0.1-2.5s0.2-1.2,0.4-1.6
						s0.4-0.7,0.6-0.9c0.3-0.2,0.6-0.3,0.9-0.3h5.5V66.6c0-0.3,0.1-0.7,0.3-0.9c0.2-0.3,0.5-0.5,1-0.7s1.2-0.3,2-0.4
						s1.9-0.1,3.1-0.1c1.3,0,2.3,0,3.2,0.1c0.8,0.1,1.5,0.2,2,0.4c0.5,0.2,0.8,0.4,1,0.7c0.2,0.3,0.3,0.6,0.3,0.9v10.3h10
						c0.3,0,0.6,0.1,0.9,0.3c0.3,0.2,0.5,0.5,0.6,0.9c0.2,0.4,0.3,0.9,0.4,1.6c0.1,0.7,0.1,1.5,0.1,2.5c0,1.9-0.2,3.2-0.5,4.1
						c-0.3,0.8-0.8,1.2-1.5,1.2h-10.1V109c0,2.5,0.4,4.4,1.2,5.7c0.8,1.3,2.2,1.9,4.2,1.9c0.7,0,1.3-0.1,1.9-0.2
						c0.6-0.1,1-0.3,1.5-0.4c0.4-0.2,0.8-0.3,1.1-0.4s0.6-0.2,0.8-0.2s0.4,0.1,0.6,0.2c0.2,0.1,0.3,0.4,0.4,0.7
						c0.1,0.4,0.2,0.9,0.3,1.5C751.5,118.3,751.5,119.1,751.5,120.1z"/>
					<path d="M791,111.6c0,2.6-0.5,4.9-1.5,6.9s-2.4,3.7-4.2,5s-3.9,2.3-6.3,3c-2.4,0.7-5.1,1-7.9,1c-1.7,0-3.4-0.1-4.9-0.4
						c-1.6-0.3-3-0.6-4.2-1s-2.3-0.8-3.1-1.2c-0.8-0.4-1.4-0.8-1.8-1.2c-0.4-0.4-0.7-0.9-0.9-1.7c-0.2-0.8-0.3-1.9-0.3-3.4
						c0-1,0-1.8,0.1-2.4s0.2-1.1,0.3-1.4c0.1-0.4,0.3-0.6,0.5-0.7s0.5-0.2,0.8-0.2c0.4,0,0.9,0.2,1.7,0.6c0.7,0.4,1.7,0.9,2.8,1.4
						s2.4,1,3.8,1.4c1.5,0.4,3.1,0.7,5,0.7c1.2,0,2.2-0.1,3.1-0.4c0.9-0.2,1.7-0.6,2.4-1s1.2-1,1.5-1.7s0.5-1.5,0.5-2.4
						c0-1-0.3-1.9-1-2.7c-0.6-0.7-1.5-1.4-2.5-1.9s-2.2-1.1-3.6-1.5c-1.3-0.5-2.7-1-4.1-1.6c-1.4-0.6-2.8-1.3-4.1-2
						c-1.3-0.8-2.5-1.7-3.6-2.8c-1-1.1-1.9-2.4-2.5-4c-0.6-1.5-1-3.4-1-5.6s0.4-4.2,1.3-6.1c0.9-1.8,2.1-3.4,3.7-4.7
						c1.6-1.3,3.6-2.3,5.9-3c2.3-0.7,4.9-1.1,7.8-1.1c1.4,0,2.8,0.1,4.2,0.3c1.4,0.2,2.6,0.5,3.7,0.8c1.1,0.3,2,0.6,2.8,1
						s1.3,0.7,1.6,0.9c0.3,0.3,0.6,0.5,0.7,0.8c0.1,0.3,0.2,0.6,0.3,0.9c0.1,0.4,0.1,0.8,0.2,1.3c0.1,0.5,0.1,1.2,0.1,2
						c0,0.9,0,1.7-0.1,2.3c-0.1,0.6-0.1,1-0.3,1.4c-0.1,0.3-0.3,0.6-0.5,0.7s-0.4,0.2-0.7,0.2s-0.8-0.2-1.4-0.5
						c-0.7-0.4-1.5-0.7-2.5-1.2c-1-0.4-2.1-0.8-3.4-1.2c-1.3-0.4-2.8-0.5-4.4-0.5c-1.2,0-2.2,0.1-3,0.4c-0.9,0.2-1.6,0.6-2.1,1
						c-0.6,0.4-1,1-1.2,1.6c-0.3,0.6-0.4,1.2-0.4,1.9c0,1.1,0.3,2,1,2.7s1.5,1.4,2.6,1.9c1.1,0.6,2.3,1.1,3.6,1.5
						c1.4,0.5,2.7,1,4.1,1.6c1.4,0.6,2.8,1.2,4.1,2c1.4,0.8,2.6,1.7,3.6,2.8c1.1,1.1,1.9,2.4,2.6,3.9
						C790.7,107.7,791,109.5,791,111.6z"/>
				</g>
			</g>
		</g>
	</g>
	<g>
		<path d="M775.5,69.9v-9h-3.4v-1.2h8.1v1.2h-3.4v9H775.5z"/>
		<path d="M781.6,69.9V59.7h2L786,67c0.2,0.7,0.4,1.2,0.5,1.5c0.1-0.4,0.3-0.9,0.5-1.6l2.5-7.1h1.8V70H790v-8.6l-3,8.6h-1.2l-3-8.7
			V70L781.6,69.9L781.6,69.9z"/>
	</g>
</g>
</svg>
